<svg width="28" height="29" viewBox="0 0 28 29" fill="none" xmlns="http://www.w3.org/2000/svg">
<g clip-path="url(#clip0_19_8529)">
<path d="M24.3163 20.5026C23.9281 21.3993 23.4687 22.2248 22.9364 22.9837C22.2107 24.0182 21.6166 24.7343 21.1588 25.132C20.449 25.7847 19.6885 26.119 18.8742 26.138C18.2896 26.138 17.5846 25.9717 16.7639 25.6342C15.9405 25.2983 15.1839 25.132 14.492 25.132C13.7664 25.132 12.9882 25.2983 12.1558 25.6342C11.3221 25.9717 10.6505 26.1475 10.137 26.165C9.35612 26.1982 8.57775 25.8544 7.80081 25.132C7.30492 24.6995 6.68466 23.958 5.94162 22.9076C5.14439 21.7859 4.48896 20.4852 3.97549 19.0023C3.42557 17.4005 3.1499 15.8495 3.1499 14.3479C3.1499 12.6278 3.52158 11.1442 4.26605 9.90102C4.85114 8.90243 5.62951 8.11471 6.6037 7.53643C7.57789 6.95816 8.63051 6.66347 9.76408 6.64462C10.3843 6.64462 11.1977 6.83648 12.2085 7.21355C13.2165 7.59188 13.8636 7.78374 14.1474 7.78374C14.3595 7.78374 15.0785 7.5594 16.2973 7.11215C17.4499 6.69738 18.4227 6.52564 19.2196 6.59329C21.379 6.76756 23.0013 7.61882 24.0802 9.15243C22.149 10.3226 21.1936 11.9616 21.2126 14.0641C21.2301 15.7018 21.8242 17.0647 22.9918 18.1467C23.521 18.649 24.1119 19.0371 24.7694 19.3128C24.6268 19.7263 24.4763 20.1224 24.3163 20.5026ZM19.3637 1.01397C19.3637 2.29759 18.8948 3.49611 17.96 4.60545C16.832 5.92423 15.4676 6.68629 13.988 6.56604C13.9692 6.41204 13.9582 6.24997 13.9582 6.07965C13.9582 4.84737 14.4947 3.52859 15.4473 2.45031C15.9229 1.90435 16.5278 1.4504 17.2614 1.08827C17.9933 0.731547 18.6857 0.534271 19.3368 0.500488C19.3558 0.672089 19.3637 0.843701 19.3637 1.01395V1.01397Z" fill="black"/>
</g>
<defs>
<clipPath id="clip0_19_8529">
<rect width="28" height="28" fill="white" transform="translate(0 0.5)"/>
</clipPath>
</defs>
</svg>
