<svg width="324" height="320" viewBox="0 0 324 320" fill="none" xmlns="http://www.w3.org/2000/svg">
<circle cx="158.087" cy="129.296" r="129.296" fill="#FFEEEC"/>
<path d="M297.069 140.087C297.069 137.464 296.028 134.948 294.173 133.094C292.318 131.239 289.803 130.197 287.18 130.197C289.803 130.197 292.318 129.155 294.173 127.301C296.028 125.446 297.069 122.931 297.069 120.308C297.069 122.931 298.111 125.446 299.966 127.301C301.821 129.155 304.336 130.197 306.959 130.197C304.336 130.197 301.821 131.239 299.966 133.094C298.111 134.948 297.069 137.464 297.069 140.087Z" fill="#FED7D3"/>
<path d="M75.6661 149.002C75.6661 146.379 74.6242 143.864 72.7696 142.009C70.915 140.155 68.3997 139.113 65.7769 139.113C67.0755 139.113 68.3615 138.857 69.5613 138.36C70.7611 137.863 71.8513 137.135 72.7696 136.216C73.6879 135.298 74.4164 134.208 74.9133 133.008C75.4103 131.808 75.6661 130.522 75.6661 129.224C75.6661 130.522 75.9219 131.808 76.4189 133.008C76.9159 134.208 77.6443 135.298 78.5626 136.216C79.4809 137.135 80.5711 137.863 81.7709 138.36C82.9708 138.857 84.2567 139.113 85.5554 139.113C82.9326 139.113 80.4172 140.155 78.5626 142.009C76.708 143.864 75.6661 146.379 75.6661 149.002Z" fill="#FED7D3"/>
<path d="M306.959 118.074C306.959 116.685 306.407 115.353 305.425 114.371C304.443 113.389 303.111 112.838 301.723 112.838C303.111 112.838 304.443 112.286 305.425 111.304C306.407 110.322 306.959 108.99 306.959 107.602C306.959 108.99 307.51 110.322 308.492 111.304C309.474 112.286 310.806 112.838 312.195 112.838C310.806 112.838 309.474 113.389 308.492 114.371C307.51 115.353 306.959 116.685 306.959 118.074Z" fill="#FED7D3"/>
<path d="M6.44104 179.891C6.44104 178.503 5.8894 177.171 4.90747 176.189C3.92553 175.207 2.59374 174.655 1.20508 174.655C2.59374 174.655 3.92553 174.104 4.90747 173.122C5.8894 172.14 6.44104 170.808 6.44104 169.419C6.44 170.107 6.57445 170.787 6.83671 171.423C7.09897 172.058 7.48389 172.635 7.96946 173.121C8.45503 173.608 9.03171 173.993 9.66652 174.257C10.3013 174.52 10.9818 174.655 11.669 174.655C10.2817 174.658 8.95201 175.21 7.9718 176.192C6.99159 177.174 6.44104 178.504 6.44104 179.891Z" fill="#FED7D3"/>
<path d="M286.398 68.4596C286.398 67.0709 285.846 65.7391 284.864 64.7572C283.882 63.7752 282.551 63.2236 281.162 63.2236C282.549 63.2236 283.88 62.673 284.861 61.6928C285.843 60.7126 286.396 59.3829 286.398 57.9956C286.398 59.3822 286.949 60.7119 287.929 61.6923C288.91 62.6728 290.239 63.2236 291.626 63.2236C290.239 63.2257 288.909 63.7783 287.929 64.76C286.948 65.7417 286.398 67.0723 286.398 68.4596Z" fill="#FED7D3"/>
<path d="M30.1227 94.8546C30.1206 93.4673 29.568 92.1376 28.5863 91.1573C27.6046 90.1771 26.274 89.6266 24.8867 89.6266C26.2754 89.6266 27.6072 89.075 28.5891 88.093C29.571 87.1111 30.1227 85.7793 30.1227 84.3906C30.1227 85.7793 30.6743 87.1111 31.6563 88.093C32.6382 89.075 33.97 89.6266 35.3587 89.6266C34.6714 89.6255 33.9907 89.76 33.3555 90.0223C32.7203 90.2845 32.1431 90.6694 31.6567 91.155C31.1704 91.6406 30.7846 92.2173 30.5214 92.8521C30.2582 93.4869 30.1227 94.1674 30.1227 94.8546Z" fill="#FED7D3"/>
<path d="M14.7499 76.473C14.7499 75.603 14.4043 74.7686 13.7891 74.1534C13.1739 73.5382 12.3395 73.1926 11.4695 73.1926C12.3395 73.1926 13.1739 72.847 13.7891 72.2317C14.4043 71.6165 14.7499 70.7821 14.7499 69.9121C14.7521 70.7829 15.0995 71.6173 15.7159 72.2322C16.3324 72.8472 17.1676 73.1926 18.0384 73.1926C17.1676 73.1926 16.3324 73.5379 15.7159 74.1529C15.0995 74.7679 14.7521 75.6023 14.7499 76.473Z" fill="#FED7D3"/>
<path d="M65.777 134.452C65.7749 133.064 65.2223 131.735 64.2406 130.755C63.2589 129.774 61.9283 129.224 60.541 129.224C61.2286 129.224 61.9095 129.088 62.5447 128.825C63.18 128.562 63.7572 128.176 64.2434 127.69C64.7296 127.204 65.1153 126.627 65.3784 125.992C65.6416 125.356 65.777 124.675 65.777 123.988C65.777 124.677 65.9132 125.36 66.1778 125.997C66.4425 126.634 66.8303 127.212 67.319 127.699C67.8078 128.185 68.3878 128.57 69.0258 128.832C69.6638 129.094 70.3473 129.227 71.0369 129.224C70.3477 129.22 69.6644 129.352 69.0264 129.613C68.3885 129.873 67.8083 130.258 67.3195 130.744C66.8306 131.23 66.4427 131.807 66.178 132.444C65.9132 133.08 65.777 133.763 65.777 134.452Z" fill="#FED7D3"/>
<path d="M303.303 245.572C310.558 240.041 315.914 231.764 316.944 222.697C317.119 221.156 317.143 219.504 316.281 218.203C315.307 216.759 313.487 216.176 311.771 215.849C306.965 214.976 302.017 215.299 297.364 216.788C292.711 218.277 288.496 220.888 285.089 224.389C280.14 229.577 276.461 237.615 277.211 244.91C277.961 252.205 283.476 254.576 289.981 252.453C294.776 250.921 299.279 248.595 303.303 245.572Z" fill="#FED5D0"/>
<path d="M252.779 286.662C252.726 286.674 252.672 286.674 252.619 286.662C252.571 286.642 252.528 286.613 252.491 286.576C252.455 286.539 252.426 286.495 252.407 286.446C252.387 286.398 252.378 286.346 252.379 286.294C252.38 286.242 252.391 286.191 252.412 286.143C265.869 255.079 315.531 218.299 316.034 217.924C316.075 217.886 316.124 217.857 316.177 217.839C316.23 217.821 316.286 217.815 316.342 217.82C316.398 217.826 316.452 217.843 316.501 217.87C316.55 217.898 316.592 217.935 316.625 217.981C316.659 218.026 316.682 218.077 316.694 218.132C316.706 218.187 316.706 218.244 316.695 218.299C316.684 218.353 316.661 218.405 316.628 218.451C316.595 218.496 316.553 218.534 316.505 218.563C316.01 218.93 266.515 255.597 253.146 286.455C253.109 286.519 253.056 286.572 252.991 286.608C252.926 286.645 252.853 286.663 252.779 286.662Z" fill="#FEAFA5"/>
<path d="M314.477 198.369C321.19 189.972 324.949 178.989 323.544 168.334C323.305 166.522 322.85 164.606 321.501 163.385C319.985 162.004 317.726 161.861 315.683 161.972C309.937 162.347 304.372 164.128 299.476 167.16C294.581 170.191 290.507 174.38 287.611 179.356C283.445 186.692 281.529 196.916 284.466 205.057C287.404 213.199 294.388 214.316 301.228 210.03C306.266 206.911 310.744 202.97 314.477 198.369Z" fill="#FED5D0"/>
<path d="M248.98 284.898C248.93 284.905 248.878 284.905 248.828 284.898C248.731 284.857 248.654 284.78 248.612 284.683C248.57 284.587 248.568 284.477 248.605 284.379C265.35 242.691 320.065 163.545 320.623 162.746C320.684 162.661 320.776 162.604 320.879 162.586C320.982 162.568 321.088 162.591 321.174 162.651C321.217 162.68 321.255 162.717 321.284 162.76C321.313 162.804 321.332 162.853 321.342 162.904C321.352 162.955 321.351 163.008 321.34 163.059C321.329 163.11 321.308 163.159 321.278 163.201C320.727 164 266.061 243.018 249.347 284.65C249.317 284.723 249.266 284.786 249.201 284.83C249.136 284.874 249.059 284.897 248.98 284.898Z" fill="#FEAFA5"/>
<path d="M36.3405 204.1C28.1673 197.124 17.3122 193.005 6.61679 194.067C4.79698 194.25 2.8734 194.641 1.60431 195.95C0.175596 197.419 0 199.67 0 201.721C0.188263 207.474 1.78774 213.093 4.65766 218.082C7.52758 223.072 11.58 227.28 16.4582 230.335C23.6417 234.741 33.8263 236.992 42.0394 234.326C50.2525 231.66 51.6174 224.748 47.5547 217.732C44.605 212.593 40.8144 207.985 36.3405 204.1Z" fill="#FED5D0"/>
<path d="M95.5963 270.938C95.5322 270.939 95.4688 270.924 95.4118 270.895C95.3547 270.866 95.3057 270.823 95.2691 270.77C78.4038 247.775 2.14706 196.788 1.38082 196.277C1.29334 196.219 1.23251 196.128 1.21158 196.025C1.19066 195.922 1.21132 195.815 1.26908 195.727C1.32907 195.639 1.42117 195.578 1.52563 195.557C1.63008 195.536 1.73857 195.557 1.8278 195.615C2.62596 196.126 78.9705 247.192 95.9156 270.299C95.9762 270.386 96.0009 270.492 95.9845 270.596C95.9682 270.701 95.912 270.794 95.8278 270.858C95.762 270.91 95.6803 270.938 95.5963 270.938Z" fill="#FEAFA5"/>
<path d="M82.1631 204.962C79.7686 194.482 73.5349 184.688 64.3241 179.149C62.7277 178.215 60.9798 177.377 59.1839 177.664C57.1566 178 55.64 179.668 54.4508 181.344C51.1647 186.07 49.0908 191.532 48.4116 197.248C47.7324 202.964 48.4687 208.76 50.5557 214.125C53.6925 221.955 60.5088 229.832 68.69 232.602C76.8712 235.372 82.1152 230.615 83.057 222.585C83.7512 216.702 83.4489 210.744 82.1631 204.962Z" fill="#FECAC4"/>
<path d="M95.5963 270.938C95.5353 270.937 95.4751 270.923 95.42 270.897C95.3649 270.871 95.3161 270.833 95.277 270.786C66.543 234.023 58.8567 178.279 58.7849 177.72C58.778 177.668 58.7816 177.614 58.7954 177.563C58.8091 177.512 58.8328 177.464 58.8651 177.423C58.9302 177.338 59.0262 177.283 59.1321 177.269C59.2379 177.255 59.3449 177.284 59.4294 177.349C59.514 177.414 59.5693 177.51 59.583 177.616C59.6549 178.167 67.2853 233.703 95.9155 270.291C95.9799 270.375 96.0085 270.481 95.995 270.585C95.9815 270.69 95.9271 270.785 95.8437 270.85C95.7735 270.906 95.6863 270.937 95.5963 270.938Z" fill="#FEAFA5"/>
<path d="M39.9562 230.36C29.6439 227.35 18.0465 228.061 8.73194 233.417C7.13561 234.326 5.53928 235.476 4.93267 237.192C4.23826 239.123 4.93267 241.262 5.85056 243.114C8.38451 248.282 12.1498 252.748 16.8152 256.119C21.4805 259.49 26.9028 261.663 32.6051 262.446C40.9778 263.507 51.1784 261.376 57.5717 255.574C63.965 249.771 62.3607 242.875 55.7838 238.174C50.982 234.702 45.6319 232.061 39.9562 230.36Z" fill="#FECAC4"/>
<path d="M95.4605 270.771C95.3939 270.77 95.3285 270.753 95.2701 270.721C95.2116 270.689 95.1619 270.643 95.1253 270.587C78.3159 244.894 5.627 237.655 4.90067 237.583C4.84826 237.578 4.79729 237.563 4.75068 237.539C4.70406 237.514 4.66272 237.481 4.62899 237.441C4.59527 237.4 4.56983 237.354 4.55414 237.303C4.53844 237.253 4.53278 237.2 4.5375 237.148C4.54222 237.096 4.55721 237.045 4.58163 236.998C4.60604 236.951 4.63939 236.91 4.67979 236.876C4.72018 236.843 4.76682 236.817 4.81705 236.801C4.86727 236.786 4.92009 236.78 4.9725 236.785C5.70681 236.857 78.7709 244.136 95.7958 270.148C95.8535 270.236 95.8742 270.343 95.8533 270.446C95.8323 270.55 95.7715 270.64 95.684 270.699C95.6171 270.742 95.54 270.767 95.4605 270.771Z" fill="#FEAFA5"/>
<path d="M211.099 82.2597C210.636 81.5095 199.781 74.1663 193.539 70.4868C171.606 56.1198 150.207 51.1313 137.795 49.5349C134.522 49.1328 131.207 49.8192 128.362 51.4882C125.518 53.1572 123.301 55.716 122.056 58.7697C99.9304 112.63 108.024 161.733 108.024 161.733C108.024 161.733 131.969 150.287 131.737 144.972C131.506 139.656 138.594 72.8095 138.594 72.8095L187.689 81.6611C189.221 83.5049 193.204 88.0464 195.878 88.7408C199.246 89.5949 202.104 90.8799 202.614 92.0373C201.728 92.4566 200.762 92.6825 199.781 92.6997C198.32 92.6997 196.293 94.4238 197.259 95.1741C198.107 95.6989 199.056 96.0389 200.044 96.1718C200.044 96.1718 200.627 98.4066 201.84 98.9175C202.217 99.2731 202.675 99.5316 203.174 99.6706C203.674 99.8097 204.199 99.8251 204.706 99.7156C204.706 99.7156 206.517 100.458 208.976 98.7259C208.976 98.7259 213.118 97.6963 213.597 96.8582C214.076 96.0201 211.69 83.2255 211.099 82.2597Z" fill="#FF9259"/>
<path d="M158.109 116.86L150.494 144.118L130.795 141.787L137.987 120.835L158.109 116.86Z" fill="#FF9259"/>
<path d="M151.516 122.727C149.986 124.044 148.287 125.15 146.463 126.015C142.926 127.628 139.122 128.577 135.241 128.817L136.838 124.107C137.647 124.284 138.469 124.396 139.296 124.443C143.442 124.677 147.594 124.094 151.516 122.727Z" fill="#F56D3F"/>
<path d="M206.366 113.468C206.366 113.468 195.599 104.688 195.383 104.153C195.167 103.619 196.564 91.1352 197.115 90.3052C197.666 89.4751 199.693 88.6609 200.659 92.7555L201.305 99.3085C201.305 99.3085 207.691 100.41 209.191 103.698C210.24 106.156 211.042 108.712 211.586 111.329L206.366 113.468Z" fill="#FF9259"/>
<path d="M222.552 112.079C222.552 112.079 221.251 104.496 220.956 102.405C220.162 98.5963 219.141 94.8382 217.899 91.1511C217.101 88.9801 213.006 84.0873 211.562 84.4864C210.803 84.7019 213.054 95.8443 213.054 95.8443C213.054 95.8443 210.716 84.4146 209.917 84.7338C209.119 85.0531 199.158 87.0485 198.743 88.0702C198.491 89.041 198.464 90.0564 198.663 91.0393L198.408 94.232L202.311 105.853L196.013 104.257L208.505 115.248L217.189 159.306C217.189 159.306 196.484 160.4 181.359 151.852C166.234 143.303 153.423 143.152 153.423 143.152L169.746 176.323C169.746 176.323 236.568 190.81 239.769 173.25C242.786 156.625 224.604 116.533 222.552 112.079Z" fill="#FF9259"/>
<g style="mix-blend-mode:multiply" opacity="0.5">
<path d="M173.944 177.257L177.329 172.261L182.149 178.638L173.944 177.257Z" fill="#FF9259"/>
</g>
<g style="mix-blend-mode:multiply" opacity="0.5">
<path d="M217.189 159.307L221.89 162.779L215.848 152.514L217.189 159.307Z" fill="#FF9259"/>
</g>
<path d="M173.801 177.05C174.254 176.157 174.788 175.307 175.397 174.512C175.98 173.702 176.637 172.948 177.36 172.261C176.456 174.041 175.264 175.659 173.832 177.05H173.801Z" fill="#A14527"/>
<path d="M216.902 159.435C217.572 159.657 218.21 159.966 218.801 160.352C219.39 160.727 219.927 161.178 220.398 161.693C219.062 161.225 217.854 160.452 216.87 159.435H216.902Z" fill="#A14527"/>
<path d="M237.854 153.744C238.558 155.834 239.131 157.967 239.57 160.129C240.027 162.285 240.342 164.469 240.511 166.666C240.712 168.881 240.605 171.113 240.192 173.299C239.981 174.408 239.561 175.467 238.955 176.42C238.65 176.892 238.248 177.296 237.777 177.602C237.305 177.909 236.773 178.113 236.217 178.199C236.729 178.045 237.205 177.79 237.616 177.449C238.028 177.107 238.366 176.687 238.612 176.212C239.114 175.27 239.441 174.245 239.578 173.187C239.853 171.043 239.893 168.875 239.697 166.722C239.554 164.559 239.258 162.396 238.947 160.241C238.795 159.155 238.612 158.078 238.412 157.048C238.213 156.018 238.013 154.829 237.854 153.744Z" fill="#A14527"/>
<path d="M197.378 83.2095C198.416 83.7043 199.438 84.2311 200.451 84.8058C201.465 85.3805 202.463 85.9073 203.468 86.466L203.556 86.5139V86.6176C203.74 87.32 203.891 88.0384 204.051 88.7487C204.211 89.4591 204.37 90.1775 204.514 90.8958V91.0395L204.402 91.1033L202.63 92.2367C201.968 92.3884 201.305 92.556 200.635 92.6917C201.273 92.4442 201.92 92.2208 202.559 91.9893L204.243 90.7362L204.163 90.9437C203.979 90.2413 203.812 89.5309 203.636 88.8206C203.46 88.1102 203.285 87.3998 203.133 86.6815L203.245 86.8331C202.263 86.2505 201.265 85.6838 200.292 85.0692C199.318 84.4546 198.328 83.856 197.378 83.2095Z" fill="#A14527"/>
<path d="M201.138 96.2914C201.784 96.2914 202.439 96.2914 203.085 96.2914C203.391 96.3022 203.697 96.2727 203.995 96.2036C204.251 96.068 204.53 95.8684 204.793 95.6928C205.853 94.9618 206.864 94.1619 207.818 93.2983C208.057 93.0931 208.278 92.8689 208.481 92.6279C208.688 92.414 208.803 92.1273 208.8 91.8297C208.888 91.1991 208.928 90.5446 209 89.8981C209.135 88.6051 209.255 87.3121 209.423 86.019C209.423 87.3201 209.423 88.6211 209.383 89.9301C209.383 90.5846 209.311 91.2311 209.247 91.8856C209.24 92.0681 209.205 92.2484 209.143 92.4203C209.068 92.5909 208.969 92.7495 208.848 92.8913C208.637 93.1549 208.405 93.4005 208.154 93.6256C207.171 94.5105 206.117 95.3114 205.001 96.0201C204.714 96.2015 204.415 96.3641 204.107 96.5069C203.769 96.5618 203.424 96.5618 203.085 96.5069C202.423 96.4431 201.776 96.3872 201.138 96.2914Z" fill="#A14527"/>
<path d="M201.305 99.093C202.694 98.8296 204.099 98.6141 205.456 98.2948C205.787 98.2342 206.107 98.1239 206.406 97.9676C206.733 97.8 207.052 97.6643 207.379 97.5126L209.311 96.6267C209.951 96.3508 210.574 96.039 211.179 95.6928C211.322 95.605 211.466 95.5092 211.594 95.4135C211.721 95.3177 211.833 95.182 211.825 95.1501C211.825 94.7989 211.825 94.4477 211.825 94.0965C211.881 92.6917 211.937 91.279 212.049 89.8662C212.145 91.279 212.176 92.6997 212.208 94.1204C212.208 94.4716 212.208 94.8308 212.208 95.182C212.158 95.4129 212.021 95.6156 211.825 95.7487C211.681 95.8682 211.529 95.9775 211.37 96.0759C210.754 96.4445 210.117 96.7776 209.463 97.0736L207.507 97.8718C207.188 98.0075 206.853 98.1432 206.549 98.2869C206.217 98.4571 205.858 98.5679 205.488 98.6141C204.105 98.8592 202.708 99.0191 201.305 99.093Z" fill="#A14527"/>
<path d="M201.305 99.4682C201.05 97.6962 200.89 95.9243 200.659 94.1763C200.567 93.3117 200.399 92.4569 200.156 91.6222C199.971 91.2356 199.735 90.8758 199.454 90.5527C199.187 90.2019 198.869 89.8926 198.512 89.6348C198.934 89.8226 199.314 90.0942 199.629 90.4329C199.984 90.7338 200.281 91.0961 200.507 91.5025C200.838 92.3532 201.053 93.2445 201.146 94.1524C201.372 95.9149 201.425 97.6953 201.305 99.4682Z" fill="#A14527"/>
<path d="M201.305 99.4682C203.015 99.4524 204.699 99.8756 206.198 100.697C206.952 101.116 207.631 101.655 208.21 102.294C208.785 102.924 209.23 103.662 209.519 104.465C209.066 103.769 208.53 103.131 207.922 102.565C207.32 102.005 206.649 101.522 205.927 101.128C205.205 100.735 204.452 100.401 203.676 100.131C202.9 99.8617 202.108 99.6405 201.305 99.4682Z" fill="#A14527"/>
<path d="M203.899 99.9551C204.779 100.077 205.674 100.009 206.525 99.7556C206.945 99.6369 207.354 99.482 207.747 99.2926C208.14 99.0971 208.519 98.873 208.88 98.6222C209.678 98.4226 210.54 98.1911 211.346 97.9118C211.745 97.7743 212.134 97.6117 212.512 97.4249C212.857 97.2696 213.155 97.0243 213.374 96.7145V96.8183C213.238 94.759 213.038 92.6838 212.751 90.6325C212.464 88.5812 212.136 86.522 211.682 84.4946C212.33 86.4775 212.821 88.5085 213.15 90.5687C213.326 91.5983 213.453 92.6359 213.581 93.6735C213.709 94.7111 213.805 95.7488 213.853 96.7944V96.8582C213.592 97.2742 213.211 97.6002 212.759 97.7921C212.36 97.9823 211.949 98.1476 211.53 98.2869C210.7 98.5612 209.852 98.7773 208.992 98.9334H209.056C208.287 99.425 207.439 99.7788 206.549 99.979C205.676 100.171 204.77 100.163 203.899 99.9551Z" fill="#A14527"/>
<path d="M164.542 193.205C164.443 195.076 164.574 196.952 164.933 198.792C164.981 199.039 165.021 199.295 165.069 199.55C165.571 202.296 166.346 205.297 167.128 207.987C167.503 209.312 167.878 210.565 168.237 211.674C169.107 214.444 169.786 216.344 169.786 216.344C169.786 216.344 157.654 242.148 119.964 235.324L118.2 230.192L113.092 215.378L110.243 207.101L100.13 177.76L118.192 150.623L124.929 140.486L128.361 140.813L129.343 140.909L152.114 143.064L155.906 143.423L160.12 143.822C160.12 143.822 160.918 143.942 162.107 144.213C165.659 145.011 173.138 147.007 177.799 150.974L173.896 177.313C171.217 180.22 168.86 183.407 166.865 186.819C165.676 188.773 164.886 190.944 164.542 193.205Z" fill="#FF9259"/>
<g style="mix-blend-mode:multiply" opacity="0.5">
<path d="M167.128 207.987C150.185 215.536 131.44 218.1 113.092 215.378L110.243 207.101C110.842 206.813 111.458 206.56 112.086 206.343C126.262 201.218 141.515 200.021 156.544 198.872C159.41 198.656 162.411 198.449 165.069 199.55C165.572 202.296 166.346 205.297 167.128 207.987Z" fill="#FF9259"/>
</g>
<g style="mix-blend-mode:multiply" opacity="0.5">
<path d="M169.786 216.351C169.786 216.351 157.654 242.156 119.964 235.332L118.2 230.2C128.359 231.62 138.711 230.065 148.004 225.722C155.459 222.21 161.948 217.022 168.237 211.682C169.107 214.444 169.786 216.351 169.786 216.351Z" fill="#FF9259"/>
</g>
<g style="mix-blend-mode:multiply" opacity="0.5">
<path d="M164.933 198.792C164.002 199.071 163.039 199.229 162.068 199.263C156.624 199.47 151.324 196.549 148.004 192.231C144.683 187.913 143.215 182.366 143.215 176.922C143.361 171.464 144.485 166.076 146.535 161.015C148.799 155.007 151.802 149.304 155.475 144.038L155.938 143.391L160.152 143.79C160.152 143.79 160.95 143.91 162.139 144.181C158.651 152.212 156.862 160.879 156.887 169.635C156.887 173.809 157.39 178.151 159.601 181.695C160.398 182.993 161.452 184.114 162.699 184.99C163.945 185.866 165.357 186.477 166.849 186.787C165.66 188.741 164.87 190.912 164.526 193.173C164.43 195.055 164.566 196.943 164.933 198.792Z" fill="#FF9259"/>
</g>
<g style="mix-blend-mode:multiply" opacity="0.5">
<path d="M129.917 139.281C129.917 139.281 120.539 164.662 125.974 165.963C131.41 167.264 152.194 142.92 152.194 142.92C152.194 142.92 142.145 170.17 129.782 172.237C117.418 174.304 109.867 172.532 110.243 171.583C110.618 170.633 118.224 150.551 118.224 150.551L129.917 139.281Z" fill="#FF9259"/>
</g>
<path d="M167.296 204.379C167.296 204.379 166.92 204.555 166.202 204.85C161.06 206.966 155.76 208.676 150.351 209.966C139.974 212.488 125.767 214.452 110.65 212.185C110.65 212.185 107.018 202.607 103.594 193.245C100.529 184.872 97.6317 176.675 97.6557 175.685C97.6956 173.546 121.473 139.177 121.473 139.177L123.66 139.217L129.918 139.344C129.918 139.344 111.975 165.684 124.761 169.499C137.548 173.314 153.495 141.092 153.495 141.092L157.598 141.683L160.12 142.05C160.12 142.05 150.989 166.346 153.647 180.25C154.908 186.843 158.819 191.105 167.623 189.326C167.615 189.262 164.678 196.732 167.296 204.379Z" fill="#E0E1E3"/>
<g style="mix-blend-mode:multiply" opacity="0.5">
<path d="M166.202 204.826C160.926 207.053 137.221 216.128 110.65 212.145C110.65 212.145 107.018 202.567 103.594 193.205C108.426 194.667 113.607 194.49 118.328 192.702C119.792 192.123 121.372 191.898 122.939 192.045C124.506 192.192 126.017 192.707 127.347 193.548C135.394 198.882 145.21 200.853 154.693 199.039C155.775 198.829 156.891 198.858 157.961 199.126C159.032 199.393 160.03 199.892 160.886 200.588C162.642 201.985 164.35 203.461 166.202 204.826Z" fill="#E0E1E3"/>
</g>
<g style="mix-blend-mode:screen" opacity="0.5">
<path d="M157.582 141.619C152.402 151.461 136.095 179.676 122.032 174.655C107.968 169.635 119.446 146.616 123.628 139.153L129.886 139.281C129.886 139.281 111.943 165.62 124.729 169.435C137.516 173.25 153.463 141.029 153.463 141.029L157.582 141.619Z" fill="#E0E1E3"/>
</g>
<g style="mix-blend-mode:screen" opacity="0.5">
<path d="M167.295 204.379C167.295 204.379 166.92 204.555 166.202 204.85C161.06 206.966 155.76 208.676 150.35 209.966C149.514 199.934 150.628 189.835 153.631 180.227C154.892 186.819 158.803 191.082 167.607 189.302C167.615 189.262 164.677 196.733 167.295 204.379Z" fill="#E0E1E3"/>
</g>
<path d="M166.817 79.2026C164.171 75.9278 160.353 73.812 156.174 73.304C151.995 72.7959 147.782 73.9354 144.428 76.4809C140.828 79.2106 138.554 83.2733 135.784 86.8571C133.389 89.9699 130.197 92.8992 126.39 93.6494C125.479 93.8328 124.677 94.3682 124.158 95.1393C123.639 95.9105 123.446 96.8551 123.62 97.768C123.652 97.9155 123.697 98.0598 123.756 98.199C124.034 98.8976 124.489 99.5116 125.077 99.9805C125.665 100.449 126.365 100.757 127.108 100.873C125.752 104.621 125.365 108.652 125.982 112.59C126.522 115.789 128.14 118.707 130.568 120.859C132.996 123.011 136.087 124.267 139.328 124.419C144.452 124.703 149.568 123.739 154.238 121.609C161.421 118.353 168.429 109.07 169.937 101.336C171.446 93.6016 171.606 85.1171 166.817 79.2026Z" fill="#FF9259"/>
<path d="M141.275 75.603C141.677 80.4963 143.615 85.1376 146.811 88.8644C150.007 92.5912 154.299 95.2129 159.074 96.3553C159.408 91.2453 157.826 86.1943 154.637 82.1879C151.532 78.1492 146.328 76.4571 141.275 75.603Z" fill="#F56D3F"/>
<path d="M151.053 106.604C151.053 107.611 150.754 108.596 150.195 109.433C149.635 110.271 148.84 110.923 147.909 111.309C146.979 111.694 145.955 111.795 144.967 111.598C143.979 111.402 143.072 110.917 142.36 110.205C141.647 109.493 141.163 108.585 140.966 107.597C140.77 106.61 140.87 105.586 141.256 104.655C141.641 103.725 142.294 102.929 143.131 102.37C143.969 101.81 144.953 101.512 145.96 101.512C147.311 101.512 148.606 102.048 149.561 103.003C150.516 103.958 151.053 105.253 151.053 106.604Z" fill="#F56D3F"/>
<path d="M128.425 100.617C128.444 100.538 128.483 100.466 128.54 100.407C128.596 100.348 128.666 100.305 128.744 100.282C128.823 100.268 128.905 100.273 128.982 100.299C129.058 100.324 129.128 100.367 129.183 100.426C129.163 100.504 129.122 100.576 129.067 100.635C129.011 100.693 128.941 100.737 128.864 100.761C128.784 100.778 128.702 100.773 128.625 100.748C128.548 100.723 128.479 100.678 128.425 100.617Z" fill="#A14527"/>
<path d="M140.772 82.6427C141.516 82.4774 142.293 82.5528 142.991 82.8582C143.659 83.1436 144.256 83.5737 144.738 84.1175C145.219 84.6614 145.574 85.3053 145.777 86.003C145.994 86.7326 145.974 87.5121 145.721 88.2299C145.154 87.853 144.62 87.4284 144.125 86.9608C143.685 86.5773 143.266 86.1696 142.872 85.7396C142.493 85.3099 142.139 84.8595 141.81 84.3907C141.419 83.836 141.072 83.2516 140.772 82.6427Z" fill="#3E3A2E"/>
<path d="M134.555 94.0884C135.254 94.3957 135.971 94.6622 136.702 94.8865C137.377 95.084 138.069 95.2176 138.769 95.2856C139.47 95.3495 140.175 95.3495 140.876 95.2856C141.635 95.2121 142.389 95.0948 143.135 94.9344C142.614 95.589 141.92 96.0841 141.132 96.3632C140.335 96.6638 139.48 96.7758 138.633 96.6904C137.785 96.6105 136.966 96.3375 136.239 95.8922C135.52 95.4596 134.937 94.8348 134.555 94.0884Z" fill="#3E3A2E"/>
<path d="M135.688 92.636C135.807 92.3347 135.99 92.0625 136.223 91.8378C136.444 91.5962 136.717 91.4079 137.021 91.2871C136.967 91.6272 136.805 91.9408 136.558 92.1811C136.323 92.4203 136.019 92.5795 135.688 92.636Z" fill="#A14527"/>
<path d="M130.348 105.63C133.799 105.924 137.265 105.31 140.405 103.85C138.969 104.881 137.32 105.577 135.579 105.885C133.839 106.193 132.051 106.106 130.348 105.63Z" fill="#A14527"/>
<path d="M134.228 107.37C134.228 107.37 134.228 107.41 134.228 107.37H134.188C134.888 107.149 135.611 107.004 136.343 106.939C136.106 107.27 135.752 107.499 135.353 107.577C134.96 107.678 134.544 107.636 134.18 107.458H134.132C134.14 107.314 134.228 107.33 134.228 107.37Z" fill="#A14527"/>
<path d="M159.489 104.393C159.68 104.124 159.797 103.811 159.829 103.483C159.861 103.156 159.808 102.826 159.673 102.525C159.545 102.241 159.35 101.992 159.106 101.799C158.861 101.606 158.574 101.475 158.268 101.416C157.655 101.276 157.011 101.379 156.472 101.703C155.929 102.026 155.502 102.512 155.251 103.092L154.948 102.773C155.373 102.624 155.831 102.599 156.27 102.7C156.709 102.8 157.111 103.022 157.429 103.341C157.747 103.659 157.969 104.061 158.07 104.499C158.17 104.938 158.145 105.396 157.997 105.822C157.86 106.237 157.62 106.612 157.299 106.909C156.978 107.207 156.586 107.417 156.161 107.522C155.75 107.622 155.321 107.629 154.907 107.542C154.492 107.455 154.103 107.276 153.767 107.019C154.112 107.22 154.496 107.347 154.893 107.39C155.29 107.434 155.692 107.395 156.073 107.274C156.441 107.16 156.774 106.953 157.039 106.673C157.305 106.394 157.494 106.051 157.59 105.678C157.704 105.331 157.72 104.959 157.636 104.604C157.552 104.249 157.37 103.924 157.112 103.666C156.854 103.407 156.529 103.226 156.173 103.142C155.818 103.057 155.446 103.073 155.1 103.188L154.541 103.403L154.796 102.868C155.096 102.201 155.595 101.644 156.225 101.272C156.541 101.089 156.891 100.973 157.253 100.93C157.615 100.888 157.983 100.92 158.332 101.025C158.682 101.115 159.005 101.291 159.271 101.536C159.537 101.781 159.738 102.088 159.857 102.429C159.979 102.759 160.01 103.116 159.945 103.462C159.881 103.808 159.723 104.13 159.489 104.393Z" fill="#A14527"/>
<path d="M186.771 144.229C182.333 146.623 176.69 146.009 172.316 143.495C167.774 145.599 162.654 146.102 157.789 144.923C155.407 144.312 153.151 143.285 151.125 141.89L155.594 125.887C154.088 122.157 153.212 118.203 153 114.186C152.952 113.292 152.944 112.398 152.96 111.512C157.909 111.943 163.528 106.069 161.852 101.136C160.455 97.0095 156.568 99.1087 154.748 100.394C155.341 98.427 156.063 96.5018 156.911 94.631C150.581 90.5229 145.917 84.2996 143.75 77.0713C140.557 79.7771 138.346 83.5445 135.768 86.8808C133.373 89.9936 130.181 92.9229 126.374 93.6732C125.461 93.8546 124.658 94.3895 124.139 95.1612C123.62 95.9329 123.428 96.8786 123.604 97.7917C123.633 97.939 123.676 98.0833 123.732 98.2227C124.012 98.92 124.468 99.5328 125.055 100.001C125.643 100.47 126.342 100.778 127.084 100.897C125.744 104.641 125.365 108.661 125.982 112.59C126.444 115.371 127.727 117.952 129.665 119.999C131.603 122.047 134.109 123.469 136.861 124.083L132.208 137.652C129.792 137.604 127.386 137.321 125.025 136.806C118.344 135.282 111.871 131.307 109.061 125.057C106.376 125.191 103.704 124.594 101.331 123.329C98.9584 122.064 96.9735 120.178 95.5883 117.874C93.9361 114.928 93.4492 111.073 95.285 108.232C96.7057 106.045 99.204 104.832 101.598 103.802C106.068 101.862 110.642 100.138 114.896 97.7598C119.15 95.3812 123.101 92.2764 125.687 88.1818C130.356 80.7589 130.301 70.6221 136.574 64.5002C142.217 59.0088 151.46 58.7454 158.667 61.9062C165.875 65.0669 170.073 72.857 176.714 77.0713C178.957 78.5183 180.846 80.4496 182.244 82.7232C183.642 84.9967 184.512 87.5548 184.791 90.2091C185.382 96.3231 182.772 102.293 182.397 108.423C182.073 114.375 183.862 120.249 187.449 125.009C189.046 127.124 191.025 129 191.983 131.506C193.85 136.144 191.201 141.842 186.771 144.229Z" fill="#3E3A2E"/>
<g style="mix-blend-mode:screen" opacity="0.5">
<path d="M184.185 86.9371C177.011 84.9815 170.03 82.3767 163.329 79.155C157.401 76.2491 151.711 72.881 146.312 69.0822C143.606 67.2145 140.725 65.3547 138.051 63.2236C137.545 63.6015 137.063 64.0093 136.606 64.4448C133.126 67.829 131.594 72.4265 130.125 77.2155C132.49 79.7163 135.041 82.0349 137.755 84.1515C139.575 81.6054 141.379 79.0353 143.75 77.0479C145.894 84.1678 150.459 90.3144 156.656 94.4239L157.199 94.6315C163.688 96.7918 170.37 98.3207 177.153 99.197C179.364 99.5242 181.575 99.8195 183.786 100.163C184.488 96.8424 185.127 93.53 184.799 90.1777C184.701 89.08 184.495 87.9947 184.185 86.9371Z" fill="#3E3A2E"/>
</g>
<g style="mix-blend-mode:multiply" opacity="0.5">
<path d="M125.983 112.59C125.983 112.342 125.927 112.103 125.895 111.855C123.45 114.094 121.333 116.665 119.605 119.494C117.317 123.286 115.502 127.344 114.202 131.578C117.367 134.125 121.08 135.904 125.049 136.774C127.41 137.289 129.816 137.572 132.232 137.62L136.886 124.051C134.133 123.444 131.625 122.028 129.683 119.986C127.741 117.944 126.452 115.369 125.983 112.59Z" fill="#3E3A2E"/>
</g>
<g style="mix-blend-mode:multiply" opacity="0.5">
<path d="M167.463 130.349C163.602 124.603 158.735 119.601 153.096 115.583C153.421 119.12 154.257 122.591 155.579 125.887L151.109 141.891C153.135 143.285 155.391 144.312 157.774 144.924C162.638 146.102 167.759 145.599 172.3 143.495C172.811 143.782 173.338 144.046 173.897 144.293C172.363 139.387 170.2 134.7 167.463 130.349Z" fill="#3E3A2E"/>
</g>
<path d="M260.785 136.176C257.592 141.045 258.566 147.35 259.109 153.169C259.947 162.084 256.531 173.466 255.788 182.517L255.74 183.204L238.133 182.031C238.013 181.735 237.893 181.448 237.766 181.169C235.156 175.286 231.205 172.66 229.832 169.284C228.854 167.009 228.576 164.494 229.034 162.06C230.423 155.332 236.648 155.22 240.671 151.98C243.393 149.785 244.829 146.393 245.819 143.032C246.809 139.672 247.471 136.192 249.092 133.087C250.648 130.102 253.346 127.444 256.658 126.957C257.342 126.865 258.034 126.865 258.718 126.957C259.65 127.05 260.537 127.406 261.275 127.984C262.013 128.562 262.571 129.338 262.884 130.222C262.884 130.317 262.948 130.413 262.972 130.517C263.586 132.872 261.918 134.436 260.785 136.176Z" fill="#FF9259"/>
<g style="mix-blend-mode:multiply" opacity="0.5">
<path d="M256.69 126.957C255.282 129.046 254.155 131.311 253.338 133.694C252.005 137.277 250.871 141.013 248.549 144.07C246.617 146.656 243.895 148.691 242.499 151.596C241.102 154.502 241.214 157.718 241.7 160.807C242.187 163.896 243.113 166.921 243.361 170.042C243.608 173.163 243.105 176.507 241.102 178.918C240.208 179.971 239.035 180.751 237.718 181.168C235.108 175.286 231.157 172.66 229.784 169.284C228.806 167.009 228.528 164.494 228.986 162.06C230.374 155.332 236.6 155.22 240.623 151.98C243.345 149.785 244.781 146.392 245.771 143.032C246.761 139.672 247.423 136.192 249.044 133.087C250.68 130.094 253.378 127.436 256.69 126.957Z" fill="#FF9259"/>
</g>
<g style="mix-blend-mode:screen" opacity="0.5">
<path d="M260.785 136.176C257.592 141.044 258.566 147.35 259.108 153.168C259.947 162.084 256.53 173.466 255.788 182.517C255.194 182.724 254.586 182.887 253.968 183.004L255.565 150.199C255.756 146.208 255.972 142.138 257.329 138.378C258.488 135.233 260.407 132.422 262.916 130.197C262.916 130.293 262.98 130.389 263.004 130.493C263.586 132.871 261.918 134.436 260.785 136.176Z" fill="#FF9259"/>
</g>
<path d="M285.743 283.102C280.3 302.498 221.148 301.284 174.878 294.955L155.554 314.821C155.554 314.821 54.794 331.168 44.0268 298.666C33.2595 266.165 125.264 255.613 125.264 255.613C123.182 250.711 121.425 245.677 120.004 240.544C119.389 238.401 119.046 236.188 118.983 233.959C118.983 233.959 151.851 238.333 170.177 213.494C170.177 213.494 173.218 213.494 172.803 220.159C172.803 220.499 172.771 220.859 172.707 221.236C172.707 221.236 206.988 218.954 213.413 243.29L246.33 254.727L237.103 179.788L259.404 170.936C259.404 170.936 291.203 263.715 285.743 283.102Z" fill="#A34B62"/>
<g style="mix-blend-mode:multiply" opacity="0.5">
<path d="M81.0217 280.676C81.0217 280.676 104.56 273.82 152.952 294.293L155.946 297.174L174.902 294.955C174.902 294.955 153.352 291.299 132.599 265.008L138.985 281.091C138.985 281.091 111.671 270.667 81.0217 280.676Z" fill="#A34B62"/>
</g>
<g style="mix-blend-mode:multiply" opacity="0.5">
<path d="M246.338 254.727C246.338 254.727 253.521 256.427 256.499 259.516L243.999 177.05L237.111 179.788L246.338 254.727Z" fill="#A34B62"/>
</g>
<g style="mix-blend-mode:screen" opacity="0.5">
<path d="M256.499 172.261L251.414 174.655C251.414 174.655 289.415 268.879 263.131 272.957C239.753 276.581 179.26 235.739 166.146 226.664C168.572 224.727 170.802 222.556 172.803 220.183C173.218 213.502 170.177 213.518 170.177 213.518C151.819 238.357 118.983 233.983 118.983 233.983C119.046 236.212 119.389 238.424 120.004 240.568C130.221 240.4 140.469 239.155 150.039 235.643C154.163 234.138 158.106 232.178 161.796 229.801C161.796 229.801 236.976 288.713 265.789 279.726C294.603 270.738 256.499 172.261 256.499 172.261Z" fill="#A34B62"/>
</g>
<path d="M81.0217 280.676C84.0432 280.07 87.1118 279.728 90.1927 279.654C91.7411 279.566 93.2895 279.614 94.83 279.614C96.3705 279.614 97.9269 279.75 99.4673 279.806C105.643 280.257 111.778 281.15 117.825 282.48L122.343 283.517L126.82 284.738L129.055 285.353C129.798 285.568 130.532 285.816 131.274 286.047L135.688 287.468C138.609 288.466 141.491 289.599 144.388 290.661L152.92 294.292L144.3 290.892C141.387 289.879 138.498 288.777 135.568 287.835L131.147 286.454C130.412 286.231 129.678 285.983 128.936 285.776L126.701 285.169L122.231 283.972L117.721 282.958C111.698 281.623 105.592 280.695 99.4434 280.181C97.9029 280.101 96.3625 279.973 94.822 279.925C93.2816 279.877 91.7411 279.838 90.2006 279.925C87.1251 279.909 84.0539 280.16 81.0217 280.676Z" fill="#260C13"/>
<path d="M246.338 254.728C248.177 255.156 249.973 255.754 251.702 256.515C252.572 256.889 253.419 257.312 254.24 257.785C255.073 258.242 255.834 258.82 256.499 259.501C255.724 258.976 254.907 258.516 254.056 258.128C253.21 257.721 252.364 257.33 251.502 256.962C249.826 256.212 248.054 255.51 246.338 254.728Z" fill="#260C13"/>
<path d="M132.575 265.917L137.165 270.475C138.713 271.984 140.246 273.484 141.834 274.945C143.423 276.405 145.027 277.874 146.623 279.319L151.468 283.613C149.72 282.344 148.036 280.995 146.376 279.622C144.716 278.249 143.119 276.788 141.531 275.32C139.943 273.851 138.418 272.327 136.933 270.754C135.449 269.182 133.956 267.578 132.575 265.917Z" fill="#260C13"/>
<path d="M153.87 286C154.707 286.311 155.509 286.706 156.265 287.181C157.029 287.638 157.743 288.173 158.396 288.777C157.559 288.468 156.756 288.072 156.001 287.596C155.236 287.141 154.522 286.606 153.87 286Z" fill="#260C13"/>
<path d="M211.929 315.196C211.879 316.143 211.559 317.055 211.006 317.825C210.452 318.595 209.69 319.189 208.808 319.538L208.569 319.618C206.222 320.305 204.578 318.716 202.79 317.663C197.778 314.725 191.488 315.963 185.733 316.785C176.65 318.07 164.758 315.005 155.579 314.821L155.634 311.996L155.938 297.174C162.323 294.276 164.821 289.894 168.277 288.29C170.509 287.216 173.009 286.83 175.461 287.181C182.245 288.266 182.644 294.468 186.077 298.355C188.399 300.973 191.855 302.25 195.255 303.08C198.656 303.91 202.168 304.413 205.336 305.882C209.008 307.566 212.312 310.934 211.929 315.196Z" fill="#FF9259"/>
<g style="mix-blend-mode:screen" opacity="0.5">
<path d="M208.808 319.538L208.569 319.618C206.222 320.305 204.578 318.716 202.79 317.663C197.778 314.725 191.488 315.962 185.733 316.785C176.65 318.07 164.758 315.005 155.579 314.821L155.634 311.996C166.841 313.522 178.166 313.989 189.461 313.392C193.34 313.193 197.291 312.866 201.042 313.839C204.243 314.669 207.324 316.657 208.808 319.538Z" fill="#FF9259"/>
</g>
</svg>
