<svg width="127" height="127" viewBox="0 0 127 127" fill="none" xmlns="http://www.w3.org/2000/svg">
<path d="M45.2493 41.3723C34.4866 33.9895 20.9098 30.457 8.24652 33.2163C6.09228 33.6894 3.84268 34.4297 2.50503 36.199C0.998427 38.1848 1.1019 40.9523 1.38789 43.4525C2.41549 50.4388 5.11473 57.0678 9.24807 62.7562C13.3814 68.4446 18.8221 73.0179 25.0914 76.0738C34.3103 80.4596 46.8235 81.8075 56.2898 77.4329C65.756 73.0583 66.4272 64.4465 60.5827 56.4519C56.333 50.5922 51.15 45.495 45.2493 41.3723Z" fill="#FED5D0"/>
<path d="M125.641 113.19C125.564 113.2 125.486 113.191 125.413 113.164C125.34 113.137 125.275 113.092 125.224 113.034C101.74 87.7823 2.82556 37.1507 1.83186 36.6437C1.71838 36.5856 1.63262 36.4852 1.59324 36.3644C1.55387 36.2436 1.56406 36.1121 1.62162 35.9987C1.68185 35.8848 1.78451 35.799 1.90755 35.7595C2.0306 35.7201 2.16423 35.7302 2.27977 35.7876C3.31195 36.2902 102.343 87.0054 125.938 112.38C126.023 112.475 126.068 112.6 126.062 112.727C126.057 112.854 126.002 112.974 125.909 113.062C125.837 113.134 125.742 113.179 125.641 113.19Z" fill="#FEAFA5"/>
<path d="M100.694 36.3794C96.3619 24.2068 87.4711 13.3854 75.5532 8.05277C73.4913 7.15978 71.2587 6.4021 69.1216 6.99388C66.7106 7.6749 65.1006 9.87555 63.8882 12.0404C60.5511 18.1353 58.7834 24.9395 58.7405 31.8541C58.6976 38.7688 60.3808 45.5819 63.6421 51.6938C68.512 60.6016 77.8474 69.0566 88.1395 71.2272C98.4317 73.3979 104.137 66.9949 104.183 57.2836C104.221 50.1679 103.041 43.1008 100.694 36.3794Z" fill="#FECAC4"/>
<path d="M125.632 113.191C125.559 113.199 125.485 113.19 125.415 113.166C125.345 113.142 125.281 113.104 125.228 113.053C85.6697 72.9397 68.7939 7.18575 68.631 6.52599C68.6156 6.46411 68.6126 6.39982 68.6222 6.33677C68.6317 6.27372 68.6536 6.21315 68.6866 6.15853C68.7532 6.04822 68.861 5.96882 68.9863 5.93779C69.1115 5.90675 69.244 5.92663 69.3545 5.99304C69.4651 6.05946 69.5446 6.16698 69.5756 6.29195C69.7374 6.94214 86.5176 72.4551 125.927 112.372C126.016 112.464 126.065 112.587 126.063 112.714C126.061 112.841 126.009 112.963 125.917 113.052C125.841 113.129 125.74 113.178 125.632 113.191Z" fill="#FEAFA5"/>
<path d="M53.1391 72.2897C40.4997 70.0958 26.8446 72.517 16.5307 80.1748C14.762 81.4777 13.0261 83.0665 12.5411 85.1976C11.9815 87.598 13.097 90.0577 14.4384 92.1441C18.1489 97.9707 23.2238 102.792 29.2163 106.184C35.2089 109.576 41.9354 111.434 48.8041 111.596C58.8776 111.728 70.6824 107.8 77.4711 100.004C84.2598 92.2092 81.4156 84.1932 72.9747 79.4723C66.8066 75.979 60.1017 73.5511 53.1391 72.2897Z" fill="#FECAC4"/>
<path d="M125.631 113.191C125.551 113.199 125.469 113.188 125.394 113.158C125.319 113.127 125.253 113.079 125.201 113.017C101.381 84.5461 12.6119 85.91 11.7249 85.9243C11.661 85.9259 11.5974 85.9149 11.5378 85.8921C11.4781 85.8693 11.4236 85.835 11.3774 85.7912C11.3311 85.7475 11.294 85.6951 11.2682 85.6371C11.2423 85.5791 11.2282 85.5165 11.2268 85.4531C11.2253 85.3896 11.2364 85.3265 11.2595 85.2672C11.2826 85.208 11.3172 85.1538 11.3613 85.1078C11.4055 85.0618 11.4583 85.0249 11.5168 84.9991C11.5753 84.9734 11.6383 84.9593 11.7023 84.9577C12.5988 84.9424 101.826 83.5744 125.951 112.399C126.033 112.496 126.072 112.622 126.061 112.748C126.05 112.875 125.989 112.992 125.891 113.074C125.816 113.135 125.727 113.175 125.631 113.191Z" fill="#FEAFA5"/>
</svg>
